<svg width="582" height="131" viewBox="0 0 582 131" fill="none" xmlns="http://www.w3.org/2000/svg">
<rect width="582" height="131" fill="#E5E5E5"/>
<rect y="1" width="581" height="130" fill="black"/>
<path d="M180.411 1C176.607 38.3145 198.348 53.9909 280.934 73.0564C306.715 110.292 330.815 112.023 381.456 99.9176C418.385 129.569 450.471 127.837 516.486 110.577C552.461 113.174 563.427 102.037 581 79.4519V1H180.411Z" fill="#100E0E" stroke="black"/>
<path d="M55 30C55 41.598 45.8218 51 34.5 51C23.1782 51 14 41.598 14 30C14 18.402 23.1782 9 34.5 9C45.8218 9 55 18.402 55 30Z" fill="#100E0E"/>
<path d="M53.536 48.568V77.272L55.888 77.32V79H43.216V77.32L45.568 77.272V63.928H34.816V77.272L37.168 77.32V79H24.496V77.32L26.848 77.272V48.568L24.496 48.52V46.84H37.168V48.52L34.816 48.568V62.152H45.568V48.568L43.216 48.52V46.84H55.888V48.52L53.536 48.568ZM68.9721 56.68C71.7881 56.68 73.9961 57.704 75.5961 59.752C77.2281 61.768 78.0281 64.504 77.9961 67.96L64.7481 68.392C64.9721 70.28 65.6281 71.72 66.7161 72.712C67.8041 73.704 69.2441 74.2 71.0361 74.2C73.5321 74.2 75.5641 73.512 77.1321 72.136L77.9961 72.904C76.8761 75.048 75.3561 76.728 73.4361 77.944C71.5481 79.128 69.5321 79.72 67.3881 79.72C64.4761 79.72 62.1561 78.76 60.4281 76.84C58.7321 74.888 57.8841 72.264 57.8841 68.968C57.8841 67.016 58.2681 65.08 59.0361 63.16C59.8361 61.24 60.8441 59.64 62.0601 58.36C62.8921 57.88 63.9641 57.48 65.2761 57.16C66.5881 56.84 67.8201 56.68 68.9721 56.68ZM70.8921 66.376C70.8601 64.136 70.5401 62.36 69.9321 61.048C69.3241 59.736 68.4601 58.952 67.3401 58.696C66.5401 59.528 65.8841 60.696 65.3721 62.2C64.8921 63.672 64.6521 65.192 64.6521 66.76V66.904L70.8921 66.376ZM79.5404 77.608L81.3164 77.464L81.0764 48.712L79.2524 49.096L78.7724 47.704L87.6524 45.016L88.3244 46.168L88.0844 77.464L89.8604 77.608V79H79.5404V77.608ZM91.3998 77.608L93.1758 77.464L92.9358 48.712L91.1118 49.096L90.6318 47.704L99.5118 45.016L100.184 46.168L99.9438 77.464L101.72 77.608V79H91.3998V77.608ZM114.251 56.68C117.451 56.68 120.027 57.624 121.979 59.512C123.931 61.4 124.907 64.088 124.907 67.576C124.907 69.08 124.635 70.632 124.091 72.232C123.579 73.832 122.811 75.24 121.787 76.456C120.763 77.448 119.563 78.248 118.187 78.856C116.843 79.432 115.419 79.72 113.915 79.72C110.715 79.72 108.139 78.776 106.187 76.888C104.235 75 103.259 72.312 103.259 68.824C103.259 67.352 103.531 65.816 104.075 64.216C104.619 62.616 105.403 61.208 106.427 59.992C107.451 59 108.635 58.2 109.979 57.592C111.355 56.984 112.779 56.68 114.251 56.68ZM110.171 66.52C110.171 69.56 110.763 71.832 111.947 73.336C113.163 74.84 114.939 75.736 117.275 76.024C117.499 75.064 117.675 73.992 117.803 72.808C117.931 71.624 117.995 70.648 117.995 69.88C117.995 66.808 117.387 64.536 116.171 63.064C114.987 61.56 113.243 60.664 110.939 60.376C110.715 61.368 110.523 62.456 110.363 63.64C110.235 64.824 110.171 65.784 110.171 66.52ZM127.228 73.192L132.988 71.896V75.928L128.908 84.376L127.18 84.616L127.228 73.192ZM144.806 77.32L147.158 77.272V48.568L144.806 48.52V46.84H157.478V48.52L155.126 48.568V77.272L157.478 77.32V79H144.806V77.32ZM187.903 76.504L180.847 79.816C179.983 79.208 179.391 78.376 179.071 77.32C177.919 78.024 176.751 78.6 175.567 79.048C174.415 79.496 173.407 79.72 172.543 79.72C171.231 79.72 170.159 79.256 169.327 78.328C168.495 77.4 168.079 76.216 168.079 74.776C168.079 74.136 168.143 73.448 168.271 72.712C168.431 71.944 168.623 71.336 168.847 70.888L179.023 69.256L179.119 67.864C179.183 66.424 178.879 65.304 178.207 64.504C177.535 63.672 176.447 63.256 174.943 63.256C174.271 63.256 173.567 63.336 172.831 63.496C172.095 63.624 171.471 63.8 170.959 64.024L170.191 65.656L168.895 65.176L171.103 58.264C173.567 57.208 175.903 56.68 178.111 56.68C180.383 56.68 182.239 57.288 183.679 58.504C185.119 59.688 185.839 61.56 185.839 64.12L185.791 65.08L185.311 71.56L185.215 73.288C185.215 73.864 185.263 74.328 185.359 74.68C185.455 75 185.615 75.336 185.839 75.688L187.327 75.112L187.903 76.504ZM177.007 76.264C177.519 76.264 178.111 76.072 178.783 75.688L178.735 74.68L178.783 73.624L178.927 70.888L175.231 71.752C175.103 72.168 175.039 72.728 175.039 73.432C175.039 74.392 175.231 75.112 175.615 75.592C175.999 76.04 176.463 76.264 177.007 76.264ZM224.616 77.608V79H214.344V77.608L216.12 77.464V67.336C216.12 65.928 215.752 64.84 215.016 64.072C214.312 63.272 213.32 62.856 212.04 62.824L210.264 64.6V65.416V77.464L211.992 77.608V79H201.72V77.608L203.496 77.464V67.336C203.496 65.928 203.128 64.84 202.392 64.072C201.688 63.304 200.696 62.904 199.416 62.872L197.832 64.456L197.64 77.464L199.416 77.608V79H189.096V77.608L190.872 77.464L190.728 60.28L188.904 60.712L188.424 59.272L196.008 56.92L197.688 62.296L201.672 56.584C204.136 56.584 206.04 57.08 207.384 58.072C208.76 59.064 209.64 60.6 210.024 62.68L214.296 56.536C217.24 56.536 219.4 57.256 220.776 58.696C222.184 60.136 222.888 62.376 222.888 65.416V77.464L224.616 77.608ZM266.292 77.32V79H254.724L248.196 66.136L248.34 66.04C247.604 66.104 246.564 66.168 245.22 66.232V77.272L247.572 77.32V79H234.9V77.32L237.252 77.272V48.568L234.9 48.52V46.84L244.164 46.936L251.316 46.36C253.62 46.36 255.588 46.792 257.22 47.656C258.884 48.488 260.132 49.624 260.964 51.064C261.828 52.472 262.26 54.04 262.26 55.768C262.26 57.752 261.684 59.48 260.532 60.952C259.38 62.424 257.652 63.608 255.348 64.504L263.94 77.272L266.292 77.32ZM245.22 64.36C247.876 64.2 249.956 63.48 251.46 62.2C252.964 60.888 253.716 59.128 253.716 56.92C253.716 55.352 253.348 53.928 252.612 52.648C251.876 51.368 250.868 50.36 249.588 49.624C248.308 48.888 246.852 48.52 245.22 48.52V64.36ZM268.697 47.272L274.841 45.88V51.352L268.697 52.264V47.272ZM275.321 77.464L277.097 77.608V79H266.777V77.608L268.553 77.464L268.409 60.376L266.585 60.76L266.105 59.368L274.793 56.68L275.465 57.832L275.321 77.464ZM292.096 74.2C294.08 74.2 296.016 73.48 297.904 72.04L298.672 72.904C297.488 74.952 296 76.6 294.208 77.848C292.448 79.096 290.544 79.72 288.496 79.72C285.616 79.72 283.312 78.76 281.584 76.84C279.888 74.888 279.04 72.264 279.04 68.968C279.04 67.016 279.44 65.08 280.24 63.16C281.04 61.24 282.064 59.64 283.312 58.36C284.4 57.816 285.536 57.4 286.72 57.112C287.904 56.824 289.04 56.68 290.128 56.68C292.016 56.68 293.696 57.192 295.168 58.216C296.64 59.24 297.824 60.728 298.72 62.68L293.2 65.896C292.688 64.456 292 63 291.136 61.528C290.272 60.056 289.52 59.048 288.88 58.504C288.048 59.304 287.328 60.472 286.72 62.008C286.144 63.512 285.856 65.064 285.856 66.664C285.856 69.128 286.4 71 287.488 72.28C288.576 73.56 290.112 74.2 292.096 74.2ZM322.52 77.608V79H312.248V77.608L314.024 77.464V67.336C314.024 65.928 313.624 64.84 312.824 64.072C312.056 63.304 310.984 62.904 309.608 62.872L308.024 64.456L307.928 77.464L309.704 77.608V79H299.384V77.608L301.16 77.464L300.92 48.712L299.096 49.096L298.616 47.704L307.496 45.016L308.168 46.168L308.024 62.152L311.912 56.584C314.952 56.584 317.192 57.304 318.632 58.744C320.072 60.184 320.792 62.408 320.792 65.416V77.464L322.52 77.608ZM359.851 77.608V79H349.579V77.608L351.355 77.464V67.336C351.355 65.928 350.987 64.84 350.251 64.072C349.547 63.272 348.555 62.856 347.275 62.824L345.499 64.6V65.416V77.464L347.227 77.608V79H336.955V77.608L338.731 77.464V67.336C338.731 65.928 338.363 64.84 337.627 64.072C336.923 63.304 335.931 62.904 334.651 62.872L333.067 64.456L332.875 77.464L334.651 77.608V79H324.331V77.608L326.107 77.464L325.963 60.28L324.139 60.712L323.659 59.272L331.243 56.92L332.923 62.296L336.907 56.584C339.371 56.584 341.275 57.08 342.619 58.072C343.995 59.064 344.875 60.6 345.259 62.68L349.531 56.536C352.475 56.536 354.635 57.256 356.011 58.696C357.419 60.136 358.123 62.376 358.123 65.416V77.464L359.851 77.608ZM372.298 56.68C375.498 56.68 378.074 57.624 380.026 59.512C381.978 61.4 382.954 64.088 382.954 67.576C382.954 69.08 382.682 70.632 382.138 72.232C381.626 73.832 380.858 75.24 379.834 76.456C378.81 77.448 377.61 78.248 376.234 78.856C374.89 79.432 373.466 79.72 371.962 79.72C368.762 79.72 366.186 78.776 364.234 76.888C362.282 75 361.306 72.312 361.306 68.824C361.306 67.352 361.578 65.816 362.122 64.216C362.666 62.616 363.45 61.208 364.474 59.992C365.498 59 366.682 58.2 368.026 57.592C369.402 56.984 370.826 56.68 372.298 56.68ZM368.218 66.52C368.218 69.56 368.81 71.832 369.994 73.336C371.21 74.84 372.986 75.736 375.322 76.024C375.546 75.064 375.722 73.992 375.85 72.808C375.978 71.624 376.042 70.648 376.042 69.88C376.042 66.808 375.434 64.536 374.218 63.064C373.034 61.56 371.29 60.664 368.986 60.376C368.762 61.368 368.57 62.456 368.41 63.64C368.282 64.824 368.218 65.784 368.218 66.52ZM407.702 77.608V79H397.43V77.608L399.206 77.464V67.336C399.206 65.928 398.806 64.84 398.006 64.072C397.238 63.304 396.166 62.904 394.79 62.872L393.254 64.456L393.062 77.464L394.838 77.608V79H384.518V77.608L386.294 77.464L386.15 60.28L384.326 60.712L383.846 59.272L391.43 56.92L393.11 62.296L397.094 56.584C400.134 56.584 402.374 57.304 403.814 58.744C405.254 60.184 405.974 62.408 405.974 65.416V77.464L407.702 77.608ZM432.973 75.688L425.965 79.48C425.101 78.968 424.461 78.296 424.045 77.464C423.661 76.6 423.437 75.496 423.373 74.152L418.621 79.72C416.765 79.72 415.117 79.304 413.677 78.472C412.269 77.608 411.165 76.44 410.365 74.968C409.565 73.464 409.165 71.768 409.165 69.88C409.165 68.248 409.437 66.52 409.981 64.696C410.525 62.872 411.181 61.448 411.949 60.424C412.557 59.56 413.661 58.728 415.261 57.928C416.861 57.096 418.205 56.68 419.293 56.68C420.253 56.68 421.565 56.84 423.229 57.16L423.133 48.712L421.309 49.096L420.829 47.704L429.709 45.016L430.381 46.168L430.093 71.032C430.093 72.184 430.157 73.048 430.285 73.624C430.413 74.168 430.637 74.648 430.957 75.064L432.397 74.392L432.973 75.688ZM416.077 67C416.077 68.472 416.317 69.752 416.797 70.84C417.277 71.928 417.901 72.76 418.669 73.336C419.469 73.912 420.317 74.2 421.213 74.2L423.373 72.04L423.277 62.344C421.197 61.352 419.197 60.68 417.277 60.328C416.477 62.152 416.077 64.376 416.077 67ZM467.408 69.448V79H443.072V77.32L445.424 77.272V48.568L443.072 48.52V46.84H466.448V56.152L464.576 56.104L464.48 53.704C460.928 51.496 457.232 49.64 453.392 48.136L453.488 61.48H462.464V63.256H453.488L453.584 77.656C457.68 76.088 461.632 74.168 465.44 71.896L465.536 69.496L467.408 69.448ZM478.801 63.976L478.609 77.464L482.881 77.608V79H470.065V77.608L471.841 77.464L471.697 60.28L469.873 60.712L469.393 59.272L476.977 56.92L478.609 62.056C479.665 59.912 480.817 58.248 482.065 57.064C482.769 56.808 483.617 56.68 484.609 56.68C485.953 56.68 487.217 56.92 488.401 57.4L486.865 63.64C485.937 63.448 484.753 63.272 483.313 63.112C481.873 62.952 480.689 62.84 479.761 62.776L478.801 63.976ZM491.166 47.272L497.31 45.88V51.352L491.166 52.264V47.272ZM497.79 77.464L499.566 77.608V79H489.246V77.608L491.022 77.464L490.878 60.376L489.054 60.76L488.574 59.368L497.262 56.68L497.934 57.832L497.79 77.464ZM514.613 56.68C516.469 56.68 518.101 57.112 519.509 57.976C520.949 58.808 522.069 59.976 522.869 61.48C523.669 62.952 524.069 64.632 524.069 66.52C524.069 68.152 523.797 69.88 523.253 71.704C522.709 73.528 522.053 74.952 521.285 75.976C520.677 76.84 519.573 77.688 517.973 78.52C516.373 79.32 515.029 79.72 513.941 79.72C512.501 79.72 510.629 79.464 508.325 78.952C506.021 78.408 504.309 77.832 503.189 77.224L503.045 48.712L501.221 49.096L500.741 47.704L509.621 45.016L510.293 46.168L510.101 61.96L514.613 56.68ZM515.957 76.072C516.757 74.248 517.157 72.024 517.157 69.4C517.157 67.928 516.917 66.648 516.437 65.56C515.957 64.472 515.317 63.64 514.517 63.064C513.749 62.488 512.917 62.2 512.021 62.2L510.101 64.12L509.957 74.056C512.133 75.048 514.133 75.72 515.957 76.072ZM536.689 56.68C539.889 56.68 542.465 57.624 544.417 59.512C546.369 61.4 547.345 64.088 547.345 67.576C547.345 69.08 547.073 70.632 546.529 72.232C546.017 73.832 545.249 75.24 544.225 76.456C543.201 77.448 542.001 78.248 540.625 78.856C539.281 79.432 537.857 79.72 536.353 79.72C533.153 79.72 530.577 78.776 528.625 76.888C526.673 75 525.697 72.312 525.697 68.824C525.697 67.352 525.969 65.816 526.513 64.216C527.057 62.616 527.841 61.208 528.865 59.992C529.889 59 531.073 58.2 532.417 57.592C533.793 56.984 535.217 56.68 536.689 56.68ZM532.609 66.52C532.609 69.56 533.201 71.832 534.385 73.336C535.601 74.84 537.377 75.736 539.713 76.024C539.937 75.064 540.113 73.992 540.241 72.808C540.369 71.624 540.433 70.648 540.433 69.88C540.433 66.808 539.825 64.536 538.609 63.064C537.425 61.56 535.681 60.664 533.377 60.376C533.153 61.368 532.961 62.456 532.801 63.64C532.673 64.824 532.609 65.784 532.609 66.52ZM549.618 73.24L556.626 71.656V78.472L549.618 79.528V73.24Z" fill="#FF66C4"/>
</svg>
