<svg width="581" height="151" viewBox="0 0 581 151" fill="none" xmlns="http://www.w3.org/2000/svg">
<rect width="581" height="151" fill="#E5E5E5"/>
<rect width="581" height="151" fill="black"/>
<path d="M180 0.5C176.196 44.2585 197.933 62.642 280.5 85C306.275 128.666 330.371 130.696 381 116.5C417.921 151.272 450 149.241 516 129C551.967 132.046 562.931 118.985 580.5 92.5V0.5H180Z" fill="#100E0E" stroke="black"/>
<ellipse cx="25.5" cy="25" rx="20.5" ry="21" fill="#100E0E"/>
<path d="M53.536 44.568V73.272L55.888 73.32V75H43.216V73.32L45.568 73.272V59.928H34.816V73.272L37.168 73.32V75H24.496V73.32L26.848 73.272V44.568L24.496 44.52V42.84H37.168V44.52L34.816 44.568V58.152H45.568V44.568L43.216 44.52V42.84H55.888V44.52L53.536 44.568ZM68.9721 52.68C71.7881 52.68 73.9961 53.704 75.5961 55.752C77.2281 57.768 78.0281 60.504 77.9961 63.96L64.7481 64.392C64.9721 66.28 65.6281 67.72 66.7161 68.712C67.8041 69.704 69.2441 70.2 71.0361 70.2C73.5321 70.2 75.5641 69.512 77.1321 68.136L77.9961 68.904C76.8761 71.048 75.3561 72.728 73.4361 73.944C71.5481 75.128 69.5321 75.72 67.3881 75.72C64.4761 75.72 62.1561 74.76 60.4281 72.84C58.7321 70.888 57.8841 68.264 57.8841 64.968C57.8841 63.016 58.2681 61.08 59.0361 59.16C59.8361 57.24 60.8441 55.64 62.0601 54.36C62.8921 53.88 63.9641 53.48 65.2761 53.16C66.5881 52.84 67.8201 52.68 68.9721 52.68ZM70.8921 62.376C70.8601 60.136 70.5401 58.36 69.9321 57.048C69.3241 55.736 68.4601 54.952 67.3401 54.696C66.5401 55.528 65.8841 56.696 65.3721 58.2C64.8921 59.672 64.6521 61.192 64.6521 62.76V62.904L70.8921 62.376ZM79.5404 73.608L81.3164 73.464L81.0764 44.712L79.2524 45.096L78.7724 43.704L87.6524 41.016L88.3244 42.168L88.0844 73.464L89.8604 73.608V75H79.5404V73.608ZM91.3998 73.608L93.1758 73.464L92.9358 44.712L91.1118 45.096L90.6318 43.704L99.5118 41.016L100.184 42.168L99.9438 73.464L101.72 73.608V75H91.3998V73.608ZM114.251 52.68C117.451 52.68 120.027 53.624 121.979 55.512C123.931 57.4 124.907 60.088 124.907 63.576C124.907 65.08 124.635 66.632 124.091 68.232C123.579 69.832 122.811 71.24 121.787 72.456C120.763 73.448 119.563 74.248 118.187 74.856C116.843 75.432 115.419 75.72 113.915 75.72C110.715 75.72 108.139 74.776 106.187 72.888C104.235 71 103.259 68.312 103.259 64.824C103.259 63.352 103.531 61.816 104.075 60.216C104.619 58.616 105.403 57.208 106.427 55.992C107.451 55 108.635 54.2 109.979 53.592C111.355 52.984 112.779 52.68 114.251 52.68ZM110.171 62.52C110.171 65.56 110.763 67.832 111.947 69.336C113.163 70.84 114.939 71.736 117.275 72.024C117.499 71.064 117.675 69.992 117.803 68.808C117.931 67.624 117.995 66.648 117.995 65.88C117.995 62.808 117.387 60.536 116.171 59.064C114.987 57.56 113.243 56.664 110.939 56.376C110.715 57.368 110.523 58.456 110.363 59.64C110.235 60.824 110.171 61.784 110.171 62.52ZM127.228 69.192L132.988 67.896V71.928L128.908 80.376L127.18 80.616L127.228 69.192ZM144.806 73.32L147.158 73.272V44.568L144.806 44.52V42.84H157.478V44.52L155.126 44.568V73.272L157.478 73.32V75H144.806V73.32ZM187.903 72.504L180.847 75.816C179.983 75.208 179.391 74.376 179.071 73.32C177.919 74.024 176.751 74.6 175.567 75.048C174.415 75.496 173.407 75.72 172.543 75.72C171.231 75.72 170.159 75.256 169.327 74.328C168.495 73.4 168.079 72.216 168.079 70.776C168.079 70.136 168.143 69.448 168.271 68.712C168.431 67.944 168.623 67.336 168.847 66.888L179.023 65.256L179.119 63.864C179.183 62.424 178.879 61.304 178.207 60.504C177.535 59.672 176.447 59.256 174.943 59.256C174.271 59.256 173.567 59.336 172.831 59.496C172.095 59.624 171.471 59.8 170.959 60.024L170.191 61.656L168.895 61.176L171.103 54.264C173.567 53.208 175.903 52.68 178.111 52.68C180.383 52.68 182.239 53.288 183.679 54.504C185.119 55.688 185.839 57.56 185.839 60.12L185.791 61.08L185.311 67.56L185.215 69.288C185.215 69.864 185.263 70.328 185.359 70.68C185.455 71 185.615 71.336 185.839 71.688L187.327 71.112L187.903 72.504ZM177.007 72.264C177.519 72.264 178.111 72.072 178.783 71.688L178.735 70.68L178.783 69.624L178.927 66.888L175.231 67.752C175.103 68.168 175.039 68.728 175.039 69.432C175.039 70.392 175.231 71.112 175.615 71.592C175.999 72.04 176.463 72.264 177.007 72.264ZM224.616 73.608V75H214.344V73.608L216.12 73.464V63.336C216.12 61.928 215.752 60.84 215.016 60.072C214.312 59.272 213.32 58.856 212.04 58.824L210.264 60.6V61.416V73.464L211.992 73.608V75H201.72V73.608L203.496 73.464V63.336C203.496 61.928 203.128 60.84 202.392 60.072C201.688 59.304 200.696 58.904 199.416 58.872L197.832 60.456L197.64 73.464L199.416 73.608V75H189.096V73.608L190.872 73.464L190.728 56.28L188.904 56.712L188.424 55.272L196.008 52.92L197.688 58.296L201.672 52.584C204.136 52.584 206.04 53.08 207.384 54.072C208.76 55.064 209.64 56.6 210.024 58.68L214.296 52.536C217.24 52.536 219.4 53.256 220.776 54.696C222.184 56.136 222.888 58.376 222.888 61.416V73.464L224.616 73.608ZM266.292 73.32V75H254.724L248.196 62.136L248.34 62.04C247.604 62.104 246.564 62.168 245.22 62.232V73.272L247.572 73.32V75H234.9V73.32L237.252 73.272V44.568L234.9 44.52V42.84L244.164 42.936L251.316 42.36C253.62 42.36 255.588 42.792 257.22 43.656C258.884 44.488 260.132 45.624 260.964 47.064C261.828 48.472 262.26 50.04 262.26 51.768C262.26 53.752 261.684 55.48 260.532 56.952C259.38 58.424 257.652 59.608 255.348 60.504L263.94 73.272L266.292 73.32ZM245.22 60.36C247.876 60.2 249.956 59.48 251.46 58.2C252.964 56.888 253.716 55.128 253.716 52.92C253.716 51.352 253.348 49.928 252.612 48.648C251.876 47.368 250.868 46.36 249.588 45.624C248.308 44.888 246.852 44.52 245.22 44.52V60.36ZM268.697 43.272L274.841 41.88V47.352L268.697 48.264V43.272ZM275.321 73.464L277.097 73.608V75H266.777V73.608L268.553 73.464L268.409 56.376L266.585 56.76L266.105 55.368L274.793 52.68L275.465 53.832L275.321 73.464ZM292.096 70.2C294.08 70.2 296.016 69.48 297.904 68.04L298.672 68.904C297.488 70.952 296 72.6 294.208 73.848C292.448 75.096 290.544 75.72 288.496 75.72C285.616 75.72 283.312 74.76 281.584 72.84C279.888 70.888 279.04 68.264 279.04 64.968C279.04 63.016 279.44 61.08 280.24 59.16C281.04 57.24 282.064 55.64 283.312 54.36C284.4 53.816 285.536 53.4 286.72 53.112C287.904 52.824 289.04 52.68 290.128 52.68C292.016 52.68 293.696 53.192 295.168 54.216C296.64 55.24 297.824 56.728 298.72 58.68L293.2 61.896C292.688 60.456 292 59 291.136 57.528C290.272 56.056 289.52 55.048 288.88 54.504C288.048 55.304 287.328 56.472 286.72 58.008C286.144 59.512 285.856 61.064 285.856 62.664C285.856 65.128 286.4 67 287.488 68.28C288.576 69.56 290.112 70.2 292.096 70.2ZM322.52 73.608V75H312.248V73.608L314.024 73.464V63.336C314.024 61.928 313.624 60.84 312.824 60.072C312.056 59.304 310.984 58.904 309.608 58.872L308.024 60.456L307.928 73.464L309.704 73.608V75H299.384V73.608L301.16 73.464L300.92 44.712L299.096 45.096L298.616 43.704L307.496 41.016L308.168 42.168L308.024 58.152L311.912 52.584C314.952 52.584 317.192 53.304 318.632 54.744C320.072 56.184 320.792 58.408 320.792 61.416V73.464L322.52 73.608ZM359.851 73.608V75H349.579V73.608L351.355 73.464V63.336C351.355 61.928 350.987 60.84 350.251 60.072C349.547 59.272 348.555 58.856 347.275 58.824L345.499 60.6V61.416V73.464L347.227 73.608V75H336.955V73.608L338.731 73.464V63.336C338.731 61.928 338.363 60.84 337.627 60.072C336.923 59.304 335.931 58.904 334.651 58.872L333.067 60.456L332.875 73.464L334.651 73.608V75H324.331V73.608L326.107 73.464L325.963 56.28L324.139 56.712L323.659 55.272L331.243 52.92L332.923 58.296L336.907 52.584C339.371 52.584 341.275 53.08 342.619 54.072C343.995 55.064 344.875 56.6 345.259 58.68L349.531 52.536C352.475 52.536 354.635 53.256 356.011 54.696C357.419 56.136 358.123 58.376 358.123 61.416V73.464L359.851 73.608ZM372.298 52.68C375.498 52.68 378.074 53.624 380.026 55.512C381.978 57.4 382.954 60.088 382.954 63.576C382.954 65.08 382.682 66.632 382.138 68.232C381.626 69.832 380.858 71.24 379.834 72.456C378.81 73.448 377.61 74.248 376.234 74.856C374.89 75.432 373.466 75.72 371.962 75.72C368.762 75.72 366.186 74.776 364.234 72.888C362.282 71 361.306 68.312 361.306 64.824C361.306 63.352 361.578 61.816 362.122 60.216C362.666 58.616 363.45 57.208 364.474 55.992C365.498 55 366.682 54.2 368.026 53.592C369.402 52.984 370.826 52.68 372.298 52.68ZM368.218 62.52C368.218 65.56 368.81 67.832 369.994 69.336C371.21 70.84 372.986 71.736 375.322 72.024C375.546 71.064 375.722 69.992 375.85 68.808C375.978 67.624 376.042 66.648 376.042 65.88C376.042 62.808 375.434 60.536 374.218 59.064C373.034 57.56 371.29 56.664 368.986 56.376C368.762 57.368 368.57 58.456 368.41 59.64C368.282 60.824 368.218 61.784 368.218 62.52ZM407.702 73.608V75H397.43V73.608L399.206 73.464V63.336C399.206 61.928 398.806 60.84 398.006 60.072C397.238 59.304 396.166 58.904 394.79 58.872L393.254 60.456L393.062 73.464L394.838 73.608V75H384.518V73.608L386.294 73.464L386.15 56.28L384.326 56.712L383.846 55.272L391.43 52.92L393.11 58.296L397.094 52.584C400.134 52.584 402.374 53.304 403.814 54.744C405.254 56.184 405.974 58.408 405.974 61.416V73.464L407.702 73.608ZM432.973 71.688L425.965 75.48C425.101 74.968 424.461 74.296 424.045 73.464C423.661 72.6 423.437 71.496 423.373 70.152L418.621 75.72C416.765 75.72 415.117 75.304 413.677 74.472C412.269 73.608 411.165 72.44 410.365 70.968C409.565 69.464 409.165 67.768 409.165 65.88C409.165 64.248 409.437 62.52 409.981 60.696C410.525 58.872 411.181 57.448 411.949 56.424C412.557 55.56 413.661 54.728 415.261 53.928C416.861 53.096 418.205 52.68 419.293 52.68C420.253 52.68 421.565 52.84 423.229 53.16L423.133 44.712L421.309 45.096L420.829 43.704L429.709 41.016L430.381 42.168L430.093 67.032C430.093 68.184 430.157 69.048 430.285 69.624C430.413 70.168 430.637 70.648 430.957 71.064L432.397 70.392L432.973 71.688ZM416.077 63C416.077 64.472 416.317 65.752 416.797 66.84C417.277 67.928 417.901 68.76 418.669 69.336C419.469 69.912 420.317 70.2 421.213 70.2L423.373 68.04L423.277 58.344C421.197 57.352 419.197 56.68 417.277 56.328C416.477 58.152 416.077 60.376 416.077 63ZM467.408 65.448V75H443.072V73.32L445.424 73.272V44.568L443.072 44.52V42.84H466.448V52.152L464.576 52.104L464.48 49.704C460.928 47.496 457.232 45.64 453.392 44.136L453.488 57.48H462.464V59.256H453.488L453.584 73.656C457.68 72.088 461.632 70.168 465.44 67.896L465.536 65.496L467.408 65.448ZM478.801 59.976L478.609 73.464L482.881 73.608V75H470.065V73.608L471.841 73.464L471.697 56.28L469.873 56.712L469.393 55.272L476.977 52.92L478.609 58.056C479.665 55.912 480.817 54.248 482.065 53.064C482.769 52.808 483.617 52.68 484.609 52.68C485.953 52.68 487.217 52.92 488.401 53.4L486.865 59.64C485.937 59.448 484.753 59.272 483.313 59.112C481.873 58.952 480.689 58.84 479.761 58.776L478.801 59.976ZM491.166 43.272L497.31 41.88V47.352L491.166 48.264V43.272ZM497.79 73.464L499.566 73.608V75H489.246V73.608L491.022 73.464L490.878 56.376L489.054 56.76L488.574 55.368L497.262 52.68L497.934 53.832L497.79 73.464ZM514.613 52.68C516.469 52.68 518.101 53.112 519.509 53.976C520.949 54.808 522.069 55.976 522.869 57.48C523.669 58.952 524.069 60.632 524.069 62.52C524.069 64.152 523.797 65.88 523.253 67.704C522.709 69.528 522.053 70.952 521.285 71.976C520.677 72.84 519.573 73.688 517.973 74.52C516.373 75.32 515.029 75.72 513.941 75.72C512.501 75.72 510.629 75.464 508.325 74.952C506.021 74.408 504.309 73.832 503.189 73.224L503.045 44.712L501.221 45.096L500.741 43.704L509.621 41.016L510.293 42.168L510.101 57.96L514.613 52.68ZM515.957 72.072C516.757 70.248 517.157 68.024 517.157 65.4C517.157 63.928 516.917 62.648 516.437 61.56C515.957 60.472 515.317 59.64 514.517 59.064C513.749 58.488 512.917 58.2 512.021 58.2L510.101 60.12L509.957 70.056C512.133 71.048 514.133 71.72 515.957 72.072ZM536.689 52.68C539.889 52.68 542.465 53.624 544.417 55.512C546.369 57.4 547.345 60.088 547.345 63.576C547.345 65.08 547.073 66.632 546.529 68.232C546.017 69.832 545.249 71.24 544.225 72.456C543.201 73.448 542.001 74.248 540.625 74.856C539.281 75.432 537.857 75.72 536.353 75.72C533.153 75.72 530.577 74.776 528.625 72.888C526.673 71 525.697 68.312 525.697 64.824C525.697 63.352 525.969 61.816 526.513 60.216C527.057 58.616 527.841 57.208 528.865 55.992C529.889 55 531.073 54.2 532.417 53.592C533.793 52.984 535.217 52.68 536.689 52.68ZM532.609 62.52C532.609 65.56 533.201 67.832 534.385 69.336C535.601 70.84 537.377 71.736 539.713 72.024C539.937 71.064 540.113 69.992 540.241 68.808C540.369 67.624 540.433 66.648 540.433 65.88C540.433 62.808 539.825 60.536 538.609 59.064C537.425 57.56 535.681 56.664 533.377 56.376C533.153 57.368 532.961 58.456 532.801 59.64C532.673 60.824 532.609 61.784 532.609 62.52ZM549.618 69.24L556.626 67.656V74.472L549.618 75.528V69.24Z" fill="#FF66C4"/>
</svg>
